<?xml version="1.0" encoding="UTF-8"?>
<!DOCTYPE svg PUBLIC "-//W3C//DTD SVG 1.1//EN" "http://www.w3.org/Graphics/SVG/1.1/DTD/svg11.dtd">
<!-- Creator: CorelDRAW 2020 (64-Bit) -->
<svg xmlns="http://www.w3.org/2000/svg" xml:space="preserve" width="2.6816in" height="2.62619in" version="1.1" style="shape-rendering:geometricPrecision; text-rendering:geometricPrecision; image-rendering:optimizeQuality; fill-rule:evenodd; clip-rule:evenodd"
viewBox="0 0 816.62 799.75"
 xmlns:xlink="http://www.w3.org/1999/xlink"
 xmlns:xodm="http://www.corel.com/coreldraw/odm/2003">
 <defs>
  <style type="text/css">
   <![CDATA[
    .fil0 {fill:#FEFEFE}
   ]]>
  </style>
 </defs>
 <g id="Layer_x0020_1">
  <metadata id="CorelCorpID_0Corel-Layer"/>
  <path class="fil0" d="M344.75 352.68c-21.32,-5.86 -105.85,-102.37 -237.02,-27.84 -51.61,29.32 -134.11,113.87 -99.49,212.74 31.84,90.9 130.38,107.41 196.44,38.13 38.4,-40.27 26.48,-64.28 46.62,-117.11 15.84,-41.56 49.69,-72.73 103.82,-51.16 8.98,49.21 -117.06,55.36 -99.32,220.24 9.18,85.36 78.67,169.76 165.84,172.01 124.8,3.22 154.37,-130.08 100.15,-183.83 -27.55,-27.3 -80.24,-46.54 -98.6,-69.7 -21.86,-27.57 -48.22,-103.06 3.39,-114.18 25.59,27.53 11.74,128.54 167.87,159.18 97.48,19.13 192.92,-29.07 214.88,-103.87 32.46,-110.54 -47.63,-180.89 -153.05,-143.36 -34.77,12.38 -54,49.29 -95.06,68.55 -47.32,22.2 -108.28,3.84 -105.43,-43.18 57.12,-35.7 114.86,35.7 209.67,-112.54 49.15,-76.85 25.2,-199.76 -35.88,-234.79 -87.34,-50.09 -185.03,-12.52 -184.29,92.26 0.43,60.27 33.14,78.09 38.01,121.17 7.81,69.04 -52.34,99.99 -66.77,85.71 -19.56,-19.35 68.13,-114.62 -55.42,-237.74 -54.02,-53.84 -163.85,-82.78 -235.73,-24.99 -71.15,57.2 -59.34,169.97 34.48,197.79 49.89,14.79 99.6,-8.42 143.16,5.76 35.34,11.5 75.74,54.23 41.73,90.75z"/>
 </g>
</svg>
