<?xml version="1.0" encoding="UTF-8"?>
<!DOCTYPE svg PUBLIC "-//W3C//DTD SVG 1.1//EN" "http://www.w3.org/Graphics/SVG/1.1/DTD/svg11.dtd">
<!-- Creator: CorelDRAW 2020 (64-Bit) -->
<svg xmlns="http://www.w3.org/2000/svg" xml:space="preserve" width="6.69991in" height="1.6463in" version="1.1" style="shape-rendering:geometricPrecision; text-rendering:geometricPrecision; image-rendering:optimizeQuality; fill-rule:evenodd; clip-rule:evenodd"
viewBox="0 0 5100.52 1253.3"
 xmlns:xlink="http://www.w3.org/1999/xlink"
 xmlns:xodm="http://www.corel.com/coreldraw/odm/2003">
 <defs>
  <style type="text/css">
   <![CDATA[
    .fil1 {fill:#909EC0}
    .fil0 {fill:#FEFEFE}
   ]]>
  </style>
 </defs>
 <g id="Layer_x0020_1">
  <metadata id="CorelCorpID_0Corel-Layer"/>
  <g id="_2908190316320">
   <path class="fil0" d="M540.25 552.69c-33.41,-9.18 -165.87,-160.42 -371.44,-43.63 -80.88,45.95 -210.17,178.45 -155.9,333.39 49.89,142.45 204.31,168.32 307.84,59.76 60.18,-63.11 41.5,-100.73 73.05,-183.52 24.83,-65.13 77.86,-113.97 162.7,-80.18 14.08,77.12 -183.45,86.77 -155.65,345.14 14.39,133.77 123.29,266.04 259.89,269.55 195.58,5.05 241.91,-203.85 156.94,-288.09 -43.17,-42.79 -125.75,-72.93 -154.52,-109.22 -34.25,-43.21 -75.56,-161.51 5.32,-178.93 40.1,43.15 18.4,201.44 263.07,249.45 152.77,29.98 302.32,-45.55 336.74,-162.77 50.86,-173.23 -74.64,-283.48 -239.84,-224.67 -54.49,19.39 -84.63,77.24 -148.97,107.43 -74.15,34.79 -169.68,6.02 -165.22,-67.66 89.51,-55.95 180,55.94 328.57,-176.36 77.03,-120.44 39.49,-313.05 -56.23,-367.95 -136.88,-78.51 -289.97,-19.63 -288.81,144.57 0.67,94.45 51.94,122.37 59.57,189.89 12.23,108.2 -82.02,156.69 -104.63,134.31 -30.65,-30.33 106.77,-179.62 -86.84,-372.56 -84.66,-84.36 -256.77,-129.72 -369.41,-39.16 -111.49,89.63 -92.99,266.36 54.04,309.96 78.18,23.18 156.08,-13.19 224.35,9.03 55.38,18.02 118.68,84.98 65.4,142.21z"/>
   <path class="fil0" d="M3846.31 556.31c202.42,-136.47 265.72,239.51 131.68,304.7 -194.94,94.82 -252.23,-223.44 -131.68,-304.7zm-837.46 403.73c4.51,-130.81 -51.64,-431.5 107.55,-429.62 152.38,1.8 89.83,311.17 98.11,434.87l116.19 -5.77c4.77,-130.53 -51.92,-432.12 107.93,-429.1 151.92,2.89 89.45,311.13 97.87,434.89l115.98 -6.23 6.83 -181.59c39.7,60.86 49.56,117.13 104.18,153.02 50.44,33.12 126,51.78 201.03,39.64 134.64,-21.8 208.08,-119.13 204.62,-275.12 -3.35,-150.16 -80.62,-245.62 -220.87,-260.63 -203.94,-21.83 -221.67,93.16 -289.16,195.18 -35.33,-283.47 -247.9,-235.66 -313.33,-80.64l-18.56 -23.91c-47.09,-62.66 -58.15,-90.86 -142,-92.06 -98.37,-1.4 -130.71,39.5 -158.09,109.33 -49.82,-87.85 47.97,-99.87 -135.17,-99.93l0.52 522.94 116.35 -5.27z"/>
   <path class="fil0" d="M2703.88 716.92c-0.3,65.19 1.28,100.84 -40.3,135.36 -31.84,26.45 -104.26,46.45 -140.29,10.58 -72.54,-72.28 124.22,-135.89 180.59,-145.94zm-267.96 -89.34c47.73,-32.42 206.4,-187.22 263.61,-17.55 -2.84,3.45 -7.33,7.42 -9.62,9.3 -2.27,1.88 -7.03,6.71 -9.9,8.9 -47.03,36.05 -111.4,51.92 -165.62,75.25 -314.84,135.36 42.32,448.38 186.12,148.41 12.76,65.99 37.71,126.23 127.57,113.62 95.18,-13.36 29.84,14.65 56.85,-33.1 -4.79,-164.24 -39.26,8.88 -67.79,-118.77 0,-150.83 21.24,-308.46 -101.76,-362.33 -150.58,-65.93 -281.71,30.94 -342.83,95.28l-0.62 -300.27 -120.74 0.22 2.3 717.72 117.93 0.12 6.69 -416.37 57.79 79.58z"/>
   <path class="fil0" d="M2076.81 789.38l4.89 -35.77c-1.4,5.55 -6.88,7.41 -8.48,14.93 -18.22,86.29 28.61,-40.12 -21.46,23.67 -181.07,154.18 -396.72,36.09 -371.36,-228.87 25.61,-267.9 349.66,-288.36 419.5,-55.13l104.9 -59.7c-73.69,-294.43 -590.53,-305.94 -649.05,77.55 -78.93,517.25 474.69,561.64 521.06,263.31z"/>
   <path class="fil0" d="M4190.64 445.17c-3.93,95.45 -17.25,378.02 18.41,447.13 65.41,126.75 245.86,110.84 302.59,-30.66 50.24,91.44 -48.72,102.74 138.65,102.74l-2.69 -522.68 -117.15 3.97c-7.15,183.92 58.21,537.63 -205.88,400.88 -32.94,-123.58 -10.04,-271.45 -17.85,-404.73l-116.09 3.35z"/>
   <path class="fil0" d="M4814 964.38c4.69,-90.18 -12.71,-300.43 19.44,-368.18 44.37,-93.58 201.21,-121.82 123.38,57.85l60.38 1.94c198.75,3.19 5.47,-442.14 -198.83,-96.15l-4.45 -117.65 -116.59 1.1 0.34 520.58 116.33 0.5z"/>
   <path class="fil0" d="M2078.09 696.84l2.07 12.06 7.43 24.93c1.34,0.34 3.83,-0.46 4.09,-0.52 0.28,-0.06 3.71,-0.86 4.03,-0.94 0.34,-0.08 3.69,-1.2 4.01,-1.28 43.57,-11.1 -30.24,-16.49 13.27,-2.55l8.37 60.66c-7.05,123.84 -10.76,190.05 62.44,175.18 39.94,-22.08 22.22,16.35 29.22,-64.55l-1.5 -306.44 -328.74 3.59 0.44 95.47 194.88 4.39z"/>
   <path class="fil1" d="M2078.09 696.84l2.07 12.06 -2.07 -12.06zm9.5 36.99c-31.32,25.73 -16.23,-1.24 -35.83,58.37 50.08,-63.79 3.25,62.62 21.46,-23.67 1.6,-7.52 7.07,-9.38 8.48,-14.93l-4.89 35.77 44.55 -0.18 -8.37 -60.66c-43.51,-13.95 30.3,-8.55 -13.27,2.55 -0.32,0.08 -3.67,1.2 -4.01,1.28 -0.32,0.08 -3.75,0.88 -4.03,0.94 -0.26,0.06 -2.75,0.86 -4.09,0.52z"/>
  </g>
 </g>
</svg>
